<?xml version="1.0" encoding="UTF-8" standalone="no"?>
<svg width="134px" height="19px" viewBox="0 0 134 19" version="1.1" xmlns="http://www.w3.org/2000/svg" xmlns:xlink="http://www.w3.org/1999/xlink">
    <!-- Generator: Sketch 3.7 (28169) - http://www.bohemiancoding.com/sketch -->
    <title>stars copy 2</title>
    <desc>Created with Sketch.</desc>
    <defs></defs>
    <g id="Page-1" stroke="none" stroke-width="1" fill="none" fill-rule="evenodd">
        <g id="iPad-Portrait" transform="translate(-381.000000, -1439.000000)" stroke="#F22652">
            <g id="stars-copy-2" transform="translate(381.000000, 1439.000000)">
                <polygon id="Star-1-Copy" fill="#F22652" points="39 15 33.1221475 18.0901699 34.2447174 11.545085 29.4894348 6.90983006 36.0610737 5.95491503 39 0 41.9389263 5.95491503 48.5105652 6.90983006 43.7552826 11.545085 44.8778525 18.0901699"></polygon>
                <polygon id="Star-1-Copy-2" points="124 15 118.122147 18.0901699 119.244717 11.545085 114.489435 6.90983006 121.061074 5.95491503 124 0 126.938926 5.95491503 133.510565 6.90983006 128.755283 11.545085 129.877853 18.0901699"></polygon>
                <polygon id="Star-1-Copy-3" points="97 15 91.1221475 18.0901699 92.2447174 11.545085 87.4894348 6.90983006 94.0610737 5.95491503 97 0 99.9389263 5.95491503 106.510565 6.90983006 101.755283 11.545085 102.877853 18.0901699"></polygon>
                <polygon id="Star-1-Copy-4" fill="#F22652" points="10 15 4.12214748 18.0901699 5.24471742 11.545085 0.489434837 6.90983006 7.06107374 5.95491503 10 0 12.9389263 5.95491503 19.5105652 6.90983006 14.7552826 11.545085 15.8778525 18.0901699"></polygon>
                <polygon id="Star-1-Copy-5" points="68 15 62.1221475 18.0901699 63.2447174 11.545085 58.4894348 6.90983006 65.0610737 5.95491503 68 0 70.9389263 5.95491503 77.5105652 6.90983006 72.7552826 11.545085 73.8778525 18.0901699"></polygon>
            </g>
        </g>
    </g>
</svg>